<?xml version="1.0" encoding="UTF-8" standalone="no"?>
<svg
   xmlns:dc="http://purl.org/dc/elements/1.1/"
   xmlns:cc="http://creativecommons.org/ns#"
   xmlns:rdf="http://www.w3.org/1999/02/22-rdf-syntax-ns#"
   xmlns:svg="http://www.w3.org/2000/svg"
   xmlns="http://www.w3.org/2000/svg"
   xmlns:sodipodi="http://sodipodi.sourceforge.net/DTD/sodipodi-0.dtd"
   xmlns:inkscape="http://www.inkscape.org/namespaces/inkscape"
   version="1.1"
   viewBox="0.0 0.0 452.0472440944882 261.9002624671916"
   fill="none"
   stroke="none"
   stroke-linecap="square"
   stroke-miterlimit="10"
   id="svg840"
   sodipodi:docname="logo.svg"
   inkscape:version="0.92.2 (5c3e80d, 2017-08-06)">
  <metadata
     id="metadata846">
    <rdf:RDF>
      <cc:Work
         rdf:about="">
        <dc:format>image/svg+xml</dc:format>
        <dc:type
           rdf:resource="http://purl.org/dc/dcmitype/StillImage" />
        <dc:title></dc:title>
      </cc:Work>
    </rdf:RDF>
  </metadata>
  <defs
     id="defs844" />
  <sodipodi:namedview
     pagecolor="#ffffff"
     bordercolor="#666666"
     borderopacity="1"
     objecttolerance="10"
     gridtolerance="10"
     guidetolerance="10"
     inkscape:pageopacity="0"
     inkscape:pageshadow="2"
     inkscape:window-width="2560"
     inkscape:window-height="1378"
     id="namedview842"
     showgrid="false"
     inkscape:pagecheckerboard="true"
     inkscape:zoom="4.29"
     inkscape:cx="226.95602"
     inkscape:cy="130.95013"
     inkscape:window-x="0"
     inkscape:window-y="33"
     inkscape:window-maximized="1"
     inkscape:current-layer="g838" />
  <clipPath
     id="p.0">
    <path
       d="m0 0l452.04724 0l0 261.90027l-452.04724 0l0 -261.90027z"
       clip-rule="nonzero"
       id="path815" />
  </clipPath>
  <g
     clip-path="url(#p.0)"
     id="g838">
    <path
       fill="#000000"
       fill-opacity="0.0"
       d="m0 0l452.04724 0l0 261.90027l-452.04724 0z"
       fill-rule="evenodd"
       id="path818" />
    <path
       style="fill:#ffffff"
       d="M 103.78125 128.89648 C 103.28125 128.89648 102.22917 128.9694 100.625 129.11523 C 99.020833 129.26107 97.166667 129.62565 95.0625 130.20898 C 92.958333 130.79232 90.739583 131.68815 88.40625 132.89648 C 87.239583 133.50065 86.119792 134.2194 85.046875 135.05273 C 83.973958 135.88607 82.947917 136.83398 81.96875 137.89648 C 80.989583 138.95898 80.096354 140.1543 79.289062 141.48242 C 78.481771 142.81055 77.760417 144.27148 77.125 145.86523 C 76.489583 147.45898 76.013021 149.22201 75.695312 151.1543 C 75.377604 153.08659 75.21875 155.18815 75.21875 157.45898 L 75.21875 164.02148 L 132.34375 164.02148 L 132.34375 128.89648 L 103.78125 128.89648 z "
       id="path868" />
    <path
       style="fill:#ffffff"
       d="M 86.974609 47.150391 C 73.867212 47.327003 59.54508 51.063364 45.953125 58.587891 C 17.771684 74.189174 1.7253698 101.09728 5.3007812 123.5293 C 5.5069568 126.84204 6.4317967 130.16276 8.1464844 133.25977 L 9.4179688 135.55469 L 72.740234 249.92578 C 78.914832 261.07809 92.960688 265.11353 104.11328 258.93945 L 184.88672 214.22266 C 196.03932 208.04857 200.07303 194.00388 193.89844 182.85156 L 130.57617 68.480469 L 129.30664 66.185547 C 127.64356 63.181761 125.3475 60.61759 122.61523 58.646484 C 122.60732 58.640772 122.59972 58.634608 122.5918 58.628906 C 113.73077 50.883577 101.05544 46.960662 86.974609 47.150391 z M 58.509766 71.873047 C 60.03274 71.67324 61.581263 71.761032 63.070312 72.148438 C 64.55936 72.535843 65.927443 73.205402 67.103516 74.107422 C 68.279588 75.009441 69.26403 76.14344 69.990234 77.455078 C 70.746355 78.820755 71.175972 80.283007 71.304688 81.757812 C 71.433403 83.232618 71.262258 84.720612 70.816406 86.136719 C 70.370555 87.552825 69.64922 88.896356 68.681641 90.085938 C 67.714061 91.275519 66.498968 92.31024 65.0625 93.105469 C 63.626034 93.9007 62.105795 94.381764 60.583984 94.570312 C 59.062174 94.758861 57.540384 94.65508 56.103516 94.28125 C 54.666648 93.90742 53.31445 93.262998 52.132812 92.371094 C 50.951175 91.479189 49.939713 90.340284 49.183594 88.974609 C 48.427473 87.608934 47.997856 86.146679 47.869141 84.671875 C 47.740425 83.197071 47.911571 81.709075 48.357422 80.292969 C 48.803273 78.876862 49.524609 77.531379 50.492188 76.341797 C 51.459766 75.152215 52.674861 74.11945 54.111328 73.324219 C 55.490959 72.560451 56.986791 72.072854 58.509766 71.873047 z M 103.78125 112.64648 L 140.40625 112.64648 C 141.53125 112.64648 142.59375 112.85482 143.59375 113.27148 C 144.59375 113.68815 145.46875 114.27148 146.21875 115.02148 C 146.96875 115.77148 147.55208 116.64648 147.96875 117.64648 C 148.38542 118.64648 148.59375 119.70898 148.59375 120.83398 L 148.59375 202.27148 L 132.34375 202.27148 L 132.34375 180.27148 L 75.21875 180.27148 L 75.21875 202.27148 L 58.96875 202.27148 L 58.96875 157.45898 C 58.96875 154.18815 59.25 151.04753 59.8125 148.03711 C 60.375 145.02669 61.21875 142.14648 62.34375 139.39648 C 63.468751 136.64648 64.812499 134.08919 66.375 131.72461 C 67.937501 129.36002 69.71875 127.18815 71.71875 125.20898 C 73.71875 123.22982 75.901042 121.4694 78.265625 119.92773 C 80.630208 118.38607 83.177083 117.06315 85.90625 115.95898 C 88.635417 114.85482 91.489583 114.02669 94.46875 113.47461 C 97.447917 112.92253 100.55208 112.64648 103.78125 112.64648 z "
       id="path820" />
    <path
       fill="#000000"
       fill-opacity="0.0"
       d="m55.277214 60.519085c-1.3015671 -5.358719 -5.34531 -23.890938 -7.809395 -32.15233c-2.4640846 -8.261391 -4.7434464 -13.585409 -6.9751205 -17.416008c-2.231678 -3.8305993 -4.039543 -4.6869946 -6.414936 -5.5675874c-2.375393 -0.8805933 -4.455763 -0.82799053 -7.8374195 0.28402948c-3.3816547 1.11202 -9.522627 4.2591724 -12.452517 6.388091c-2.9298878 2.1289177 -4.155939 4.328123 -5.126814 6.385418c-0.9708743 2.0572948 -0.85927963 3.2612267 -0.6984334 5.958353c0.16084623 2.6971264 0.08915186 5.776451 1.6635108 10.224407c1.5743589 4.447956 4.360811 11.687183 7.7826433 16.463322c3.4218292 4.776142 8.64661 9.39819 12.7483425 12.193523c4.1017323 2.7953339 9.885035 3.8153992 11.862043 4.5784836"
       fill-rule="evenodd"
       id="path826" />
    <path
       stroke="#ffffff"
       stroke-width="8.0"
       stroke-linejoin="round"
       stroke-linecap="butt"
       d="m55.277214 60.519085c-1.3015671 -5.358719 -5.34531 -23.890938 -7.809395 -32.15233c-2.4640846 -8.261391 -4.7434464 -13.585409 -6.9751205 -17.416008c-2.231678 -3.8305993 -4.039543 -4.6869946 -6.414936 -5.5675874c-2.375393 -0.8805933 -4.455763 -0.82799053 -7.8374195 0.28402948c-3.3816547 1.11202 -9.522627 4.2591724 -12.452517 6.388091c-2.9298878 2.1289177 -4.155939 4.328123 -5.126814 6.385418c-0.9708743 2.0572948 -0.85927963 3.2612267 -0.6984334 5.958353c0.16084623 2.6971264 0.08915186 5.776451 1.6635108 10.224407c1.5743589 4.447956 4.360811 11.687183 7.7826433 16.463322c3.4218292 4.776142 8.64661 9.39819 12.7483425 12.193523c4.1017323 2.7953339 9.885035 3.8153992 11.862043 4.5784836"
       fill-rule="evenodd"
       id="path828" />
    <path
       fill="#000000"
       fill-opacity="0.0"
       d="m42.217846 70.391075l396.8504 0l0 157.79529l-396.8504 0z"
       fill-rule="evenodd"
       id="path830" />
    <path
       fill="#000000"
       fill-opacity="0.0"
       d="m170.3727 70.391075l396.8504 0l0 170.89764l-396.8504 0z"
       fill-rule="evenodd"
       id="path834" />
    <path
       fill="#ffffff"
       d="m252.4352 202.27109l-44.0625 0q-3.375 0 -7.375 -1.1875q-4.0 -1.1875 -7.40625 -3.90625q-3.40625 -2.71875 -5.6875 -7.0625q-2.28125 -4.34375 -2.28125 -10.65625l0 -22.0q0 -2.3125 0.53125 -4.875q0.53125 -2.5625 1.65625 -5.09375q1.125 -2.53125 2.90625 -4.84375q1.78125 -2.3125 4.3125 -4.0625q2.53125 -1.75 5.84375 -2.8125q3.3125 -1.0625 7.5 -1.0625l44.0625 0l0 16.25l-44.0625 0q-3.1875 0 -4.84375 1.625q-1.65625 1.625 -1.65625 5.0l0 21.875q0 3.1875 1.6875 4.875q1.6875 1.6875 4.9375 1.6875l43.9375 0l0 16.25zm73.750015 0l-16.25 0l0 -44.8125q0 -3.1875 -1.6875 -4.84375q-1.6875 -1.65625 -5.0 -1.65625l-21.125 0l0 51.3125l-16.25 0l0 -59.5q0 -1.6875 0.625 -3.15625q0.625 -1.46875 1.75 -2.5625q1.125 -1.09375 2.625 -1.71875q1.5 -0.625 3.1875 -0.625l29.3125 0q3.375 0 7.25 1.1875q3.875 1.1875 7.375 3.8125l0 -5.0l22.0 0q2.3125 0 4.875 0.53125q2.5625 0.53125 5.09375 1.65625q2.53125 1.125 4.84375 2.90625q2.3125 1.78125 4.0625 4.3125q1.75 2.53125 2.8125 5.84375q1.0625 3.3125 1.0625 7.5l0 44.8125l-16.25 0l0 -44.8125q0 -3.1875 -1.59375 -4.84375q-1.59375 -1.65625 -4.90625 -1.65625l-14.625 0q0.8125 3.0 0.8125 6.5l0 44.8125zm124.1875 -45.1875q0 3.375 -1.1875 7.28125q-1.1875 3.90625 -3.84375 7.25q-2.65625 3.34375 -6.9375 5.59375q-4.28125 2.25 -10.40625 2.25l-29.3125 0l0 -15.4375l29.3125 0q3.3125 0 5.125 -2.03125q1.8125 -2.03125 1.8125 -5.03125q0 -3.1875 -2.03125 -5.0q-2.03125 -1.8125 -4.90625 -1.8125l-29.3125 0q-3.3125 0 -5.125 2.03125q-1.8125 2.03125 -1.8125 5.03125l0 22.6875q0 3.25 2.03125 5.0625q2.03125 1.8125 5.03125 1.8125l29.1875 0l0 15.5l-29.3125 0q-3.375 0 -7.28125 -1.1875q-3.90625 -1.1875 -7.25 -3.84375q-3.34375 -2.65625 -5.59375 -6.9375q-2.25 -4.28125 -2.25 -10.40625l0 -22.8125q0 -3.375 1.1875 -7.28125q1.1875 -3.90625 3.84375 -7.25q2.65625 -3.34375 6.9375 -5.59375q4.28125 -2.25 10.40625 -2.25l29.3125 0q3.375 0 7.28125 1.1875q3.90625 1.1875 7.25 3.84375q3.34375 2.65625 5.59375 6.9375q2.25 4.28125 2.25 10.40625z"
       fill-rule="nonzero"
       id="path836" />
  </g>
</svg>
