<?xml version="1.0" encoding="UTF-8" standalone="no"?>
<svg
   xmlns:dc="http://purl.org/dc/elements/1.1/"
   xmlns:cc="http://creativecommons.org/ns#"
   xmlns:rdf="http://www.w3.org/1999/02/22-rdf-syntax-ns#"
   xmlns:svg="http://www.w3.org/2000/svg"
   xmlns="http://www.w3.org/2000/svg"
   xmlns:sodipodi="http://sodipodi.sourceforge.net/DTD/sodipodi-0.dtd"
   xmlns:inkscape="http://www.inkscape.org/namespaces/inkscape"
   version="1.1"
   viewBox="0.0 0.0 199.45144356955382 201.64304461942257"
   fill="none"
   stroke="none"
   stroke-linecap="square"
   stroke-miterlimit="10"
   id="svg92"
   sodipodi:docname="128 SSR Icon.svg"
   inkscape:version="1.0.1 (3bc2e813f5, 2020-09-07)">
  <metadata
     id="metadata98">
    <rdf:RDF>
      <cc:Work
         rdf:about="">
        <dc:format>image/svg+xml</dc:format>
        <dc:type
           rdf:resource="http://purl.org/dc/dcmitype/StillImage" />
        <dc:title></dc:title>
      </cc:Work>
    </rdf:RDF>
  </metadata>
  <defs
     id="defs96" />
  <sodipodi:namedview
     pagecolor="#ffffff"
     bordercolor="#666666"
     borderopacity="1"
     objecttolerance="10"
     gridtolerance="10"
     guidetolerance="10"
     inkscape:pageopacity="0"
     inkscape:pageshadow="2"
     inkscape:window-width="2560"
     inkscape:window-height="1376"
     id="namedview94"
     showgrid="false"
     inkscape:zoom="5.8767214"
     inkscape:cx="94.790997"
     inkscape:cy="100.82152"
     inkscape:window-x="0"
     inkscape:window-y="409"
     inkscape:window-maximized="1"
     inkscape:current-layer="g90" />
  <clipPath
     id="p.0">
    <path
       d="m0 0l199.45145 0l0 201.64305l-199.45145 0l0 -201.64305z"
       clip-rule="nonzero"
       id="path81" />
  </clipPath>
  <g
     clip-path="url(#p.0)"
     id="g90">
    <path
       fill="#000000"
       fill-opacity="0.0"
       d="m0 0l199.45145 0l0 201.64305l-199.45145 0z"
       fill-rule="evenodd"
       id="path84" />
    <path
       id="path86"
       style="opacity:1;fill:#272526;fill-opacity:1"
       d="M 99.779297 0 C 44.672588 9.4739031e-15 0 45.137615 0 100.81836 C 1.8947806e-14 156.49909 44.672585 201.63867 99.779297 201.63867 C 154.88601 201.63867 199.55859 156.49909 199.55859 100.81836 C 199.55859 74.079515 189.04626 48.436508 170.33398 29.529297 C 151.62168 10.622087 126.24247 0 99.779297 0 z M 146.82617 53.828125 C 160.99782 53.828125 172.52148 64.933655 172.52148 78.560547 C 172.52148 85.405334 169.57524 91.924347 164.41406 96.587891 C 171.42792 101.9912 175.57812 110.37743 175.57812 119.20312 C 175.57813 134.97376 162.68108 147.81055 146.8125 147.81055 C 130.95627 147.81055 118.06055 134.97376 118.06055 119.20312 C 118.06055 110.36512 122.21066 101.99179 129.23633 96.576172 C 124.07568 91.912628 121.13867 85.405334 121.13867 78.560547 C 121.13867 64.933654 132.66582 53.828125 146.82617 53.828125 z M 83.279297 55.105469 C 91.351601 55.105469 98.341614 57.725109 104.08008 62.902344 C 110.19176 68.405816 113.41539 76.090363 112.92188 83.988281 C 112.70546 87.548889 112.12764 90.08252 110.87695 93.041016 C 107.70055 100.52541 103.51417 102.61765 96.572266 106.08984 C 95.128784 106.80443 93.481163 107.63217 91.724609 108.57227 C 78.551269 115.55527 74.329201 123.27824 72.019531 130.63672 L 113.04297 130.78711 L 113.04297 145.85547 L 55.115234 145.85547 L 55.091797 145.05273 C 54.875381 134.49681 57.221573 124.87059 62.082031 116.45898 C 66.942489 108.04681 74.052719 101.27595 83.244141 96.324219 C 84.097984 95.910133 84.890717 95.535606 85.648438 95.171875 C 94.563302 90.959915 98.257431 89.215858 98.041016 81.769531 C 97.968521 79.099213 96.451843 76.1297 94.082031 74.023438 C 91.939903 72.104637 88.182846 70.126953 83.945312 70.126953 C 83.780457 70.126953 83.613197 70.130569 83.447266 70.136719 C 75.699311 70.424904 71.212738 74.09742 68.878906 82.070312 L 68.673828 82.773438 L 54.634766 79.953125 L 54.863281 79.099609 C 56.800266 71.853607 60.410053 65.699165 65.017578 61.775391 C 70.202927 57.350231 76.349747 55.105469 83.279297 55.105469 z M 34.085938 56.546875 L 45.203125 56.546875 L 45.203125 145.85547 L 30.730469 145.85547 L 30.730469 74.361328 L 23.980469 74.361328 L 23.980469 62.076172 L 24.726562 62.025391 C 29.141842 61.762387 31.872009 60.246052 33.869141 56.923828 L 34.085938 56.546875 z M 146.78906 68.970703 C 140.70207 68.970703 135.75781 73.346481 135.75781 78.724609 C 135.75781 84.10273 140.70207 88.476562 146.78906 88.476562 C 152.87659 88.476563 157.83203 84.10273 157.83203 78.724609 C 157.83203 73.346481 152.87659 68.970703 146.78906 68.970703 z M 146.82422 104.49805 C 138.67943 104.49805 132.05078 110.89289 132.05078 118.76562 C 132.05078 126.63836 138.67943 133.03125 146.82422 133.03125 C 154.96848 133.03125 161.58594 126.63836 161.58594 118.76562 C 161.58594 110.89289 154.96848 104.49805 146.82422 104.49805 z " />
  </g>
</svg>
